<?xml version="1.0" encoding="utf-8"?>
<!-- Generator: Adobe Illustrator 23.0.4, SVG Export Plug-In . SVG Version: 6.00 Build 0)  -->
<svg version="1.1" id="Layer_1" xmlns="http://www.w3.org/2000/svg" xmlns:xlink="http://www.w3.org/1999/xlink" x="0px" y="0px"
	 viewBox="0 0 111.2 18.1" style="enable-background:new 0 0 111.2 18.1;" xml:space="preserve">
<style type="text/css">
	.st0{fill:#FFFFFF;}
</style>
<title>logo-web-developer</title>
<path class="st0" d="M15.7,5.2v0.7h-0.4c-0.7,0-1.3,0.6-1.4,1.3l-2.1,7h-2l-2-5.7L6,14.2H4l-2.4-7C1.3,6.4,1.2,6,0.4,5.9H0V5.2h5V6
	H4.7C4.1,6,3.9,6.3,4.2,7.2l1.6,4.9l1.4-4.9C7,6.4,6.8,6,6,5.9H5.7V5.2h5v0.7h-0.3C9.8,6,9.6,6.3,9.9,7.2l1.6,4.9l1.4-4.9
	c0.3-0.9-0.3-1.3-1-1.3h-0.6V5.2H15.7z"/>
<path class="st0" d="M19.2,14.4c-2.5,0.1-4.6-1.8-4.7-4.4c0-0.1,0-0.2,0-0.4c-0.1-2.4,1.7-4.5,4.1-4.7c0.1,0,0.2,0,0.4,0
	c2-0.1,3.8,1.4,3.9,3.5v0.1c0,0.9-0.3,1.4-1.2,1.4h-4.3c0,1.7,0.5,3.6,2.4,3.6c0.9,0,1.7-0.5,2.1-1.3h0.8
	C22.1,13.7,20.7,14.5,19.2,14.4z M19,5.8c-1,0-1.5,1.3-1.5,3.4h2.9C20.3,7.1,20,5.8,19,5.8z"/>
<path class="st0" d="M32.4,9.8c0,3.4-2.4,4.6-4.1,4.6s-1.9-1.2-2.9-1.2c-0.6,0-1,0.4-1.1,1h-0.4c-0.3,0-0.6-0.2-0.7-0.5v-0.1V4.3
	c0-0.8-0.4-1-1.1-0.9V2.8c1.2-0.2,2.4-0.6,3.5-1.2c0.2,0.1,0.4,0.3,0.5,0.5c0,0.9-0.1,1.8,0,2.7V6c0.6-0.7,1.4-1,2.2-1
	C30.2,5,32.4,6.6,32.4,9.8z M29.4,10.5c0-2.9-0.7-4.6-1.9-4.6c-0.6,0-1.1,0.4-1.3,0.9v4.8c0.1,1.1,0.9,1.9,2,2
	C29.1,13.6,29.3,12.2,29.4,10.5L29.4,10.5z"/>
<path class="st0" d="M45.7,13.3V14c-1.1,0-2.3,0.2-3.4,0.5c-0.2-0.1-0.4-0.3-0.5-0.5l0.1-0.9h-0.1c-0.4,0.8-1.3,1.4-2.2,1.3
	c-1.8,0-4.2-1.4-4.2-4.7c0-3.2,2.2-4.6,4.1-4.6c0.9,0,1.7,0.3,2.2,1V4.3c0-0.8-0.4-1-1.1-0.9V2.8c1.2-0.2,2.4-0.6,3.5-1.2
	c0.2,0.1,0.4,0.3,0.5,0.5c-0.1,0.9-0.1,1.8-0.1,2.7V12c-0.1,0.6,0.4,1.2,1,1.3C45.5,13.3,45.6,13.3,45.7,13.3z M41.7,6.9
	c-0.4-0.6-1-1-1.7-1.1c-1.1,0-1.7,1.4-1.7,3.3c0,2.7,0.9,4.5,1.9,4.5c0.8,0,1.4-1,1.4-1.8L41.7,6.9z"/>
<path class="st0" d="M49.9,14.4c-2.5,0.1-4.6-1.8-4.7-4.4c0-0.1,0-0.2,0-0.4c-0.1-2.4,1.7-4.5,4.1-4.7c0.1,0,0.2,0,0.4,0
	c2-0.1,3.8,1.4,3.9,3.5v0.1c0,0.9-0.3,1.4-1.1,1.4h-4.3c0,1.7,0.5,3.6,2.4,3.6c0.9,0,1.7-0.5,2.1-1.3h0.8
	C52.8,13.7,51.4,14.5,49.9,14.4z M49.6,5.8c-1,0-1.5,1.3-1.5,3.4H51C51,7.1,50.7,5.8,49.6,5.8z"/>
<path class="st0" d="M54.1,7.3C53.9,6.4,53.7,6,52.9,6h-0.4V5.2h5v0.7h-0.3c-0.5,0.1-0.7,0.4-0.4,1.3l1.6,4.9l1.4-4.9
	c0.3-0.9-0.3-1.3-1-1.3h-0.6V5.2h4.4v0.7h-0.4c-0.7,0-1.3,0.6-1.4,1.3l-2.1,7h-2.1L54.1,7.3z"/>
<path class="st0" d="M66.1,14.4c-2.5,0.1-4.6-1.8-4.7-4.4c0-0.1,0-0.2,0-0.4c-0.1-2.4,1.7-4.5,4.1-4.7c0.1,0,0.2,0,0.4,0
	c2-0.1,3.8,1.4,3.9,3.5v0.1c0,0.9-0.3,1.4-1.1,1.4h-4.3c0,1.7,0.5,3.6,2.4,3.6c0.9,0,1.7-0.5,2.1-1.3h0.8
	C68.9,13.7,67.6,14.5,66.1,14.4z M65.8,5.8c-1,0-1.5,1.3-1.5,3.4h2.9C67.2,7.1,66.9,5.8,65.8,5.8z"/>
<path class="st0" d="M74.4,13.5v0.7c-1.7,0-3.4,0-5.1,0v-0.7c0.6-0.1,1.1-0.2,1.1-0.7V4.3c0-0.8-0.4-1-1.1-0.9V2.8
	c1.2-0.2,2.4-0.6,3.5-1.2c0.2,0.1,0.4,0.3,0.5,0.5c-0.1,0.9-0.1,1.8-0.1,2.7v8.1C73.2,13.3,73.7,13.4,74.4,13.5z"/>
<path class="st0" d="M83,9.8c0.1,2.5-1.8,4.6-4.3,4.7c-0.1,0-0.2,0-0.3,0c-2.5,0-4.6-2.1-4.5-4.6V9.8c-0.1-2.5,1.8-4.6,4.3-4.7
	c0.1,0,0.2,0,0.3,0c2.5,0,4.5,2,4.5,4.6C83,9.7,83,9.7,83,9.8z M80.1,10.7c0-2.8-0.8-4.8-1.9-4.8c-0.9,0-1.3,1.2-1.3,3
	c0,2.8,0.8,4.8,1.9,4.8C79.6,13.6,80.1,12.4,80.1,10.7z"/>
<path class="st0" d="M93,9.8c0,3.4-2.4,4.6-4.2,4.6c-0.8,0-1.6-0.3-2.1-0.9V15c0,0.9,0.4,1,1.3,1v0.7c-1.4,0.2-2.7,0.6-3.9,1.3
	c-0.3-0.1-0.5-0.3-0.6-0.6c0.3-0.6,0.4-1.2,0.3-1.8V7.8c0-0.8-0.4-1-1.1-0.9V6.2C84,6,85.1,5.6,86.2,5c0.2,0.1,0.4,0.3,0.5,0.5
	c0,0.1,0,0.3,0,0.4C87.3,5.4,88.1,5.1,89,5C90.8,5,93,6.6,93,9.8z M90,10.5C90,7.6,89.3,6,88.1,6c-0.5,0-1,0.3-1.4,0.7
	c0,0.5,0,1,0,1.6v3.2c0,1.1,0.8,2,1.9,2.2C89.6,13.6,89.9,12.2,90,10.5L90,10.5z"/>
<path class="st0" d="M97.7,14.4c-2.5,0.1-4.6-1.8-4.7-4.4c0-0.1,0-0.2,0-0.4c-0.1-2.4,1.7-4.5,4.1-4.7c0.1,0,0.2,0,0.4,0
	c2-0.1,3.8,1.4,3.9,3.5v0.1c0,0.9-0.3,1.4-1.1,1.4H96c0,1.7,0.5,3.6,2.4,3.6c0.9,0,1.7-0.5,2.1-1.3h0.8
	C100.5,13.7,99.2,14.5,97.7,14.4z M97.4,5.8c-1,0-1.5,1.3-1.5,3.4h2.9C98.8,7.1,98.5,5.8,97.4,5.8z"/>
<path class="st0" d="M109.4,6.4c0,0.6-0.4,1.1-1,1.1h-0.1c-0.8,0-1.1-0.7-1.8-0.7c-0.9,0-1.3,1.2-1.4,1.6v4.4c0,0.5,0.5,0.6,1.2,0.7
	v0.7c-1.7,0-3.5,0-5.1,0v-0.7c0.6-0.1,1.1-0.2,1.1-0.7v-5c0-0.8-0.4-1-1.1-0.9V6.3c1.2-0.2,2.3-0.6,3.3-1.2c0.2,0.1,0.4,0.3,0.5,0.5
	l-0.4,2.1h0.1c0.6-1.5,1.6-2.6,2.9-2.6C108.6,5,109.4,5.5,109.4,6.4z"/>
</svg>
