<?xml version="1.0" encoding="utf-8"?>
<!-- Generator: Adobe Illustrator 23.0.4, SVG Export Plug-In . SVG Version: 6.00 Build 0)  -->
<svg version="1.1" id="Layer_1" xmlns="http://www.w3.org/2000/svg" xmlns:xlink="http://www.w3.org/1999/xlink" x="0px" y="0px"
	 viewBox="0 0 231.6 20.9" style="enable-background:new 0 0 231.6 20.9;" xml:space="preserve">
<title>logo-catherine-parkinson</title>
<path d="M14.9,13.5c-0.5,2.2-2.4,4.6-6.6,4.6c-5,0-8.3-3.3-8.3-8.1c0-5,3.6-7.6,7.9-7.6c2,0,2.7,0.7,4.3,0.7c0.6,0,1.2-0.1,1.8-0.3
	c0,1.5,0.3,2.9,0.8,4.3h-2.7c-0.9-1.8-2-3.2-3.9-3.2c-2.6,0-2.9,2.6-2.9,5.3c0,3.7,1.1,7.4,4.2,7.4c1,0,2.9-0.4,3.8-3L14.9,13.5z"/>
<path d="M28.3,16v1.3c-1.8,0.1-3.7,0.3-5.5,0.7c-0.4-0.1-0.7-0.4-0.8-0.8l0.1-1.1h-0.3c-0.6,1.3-1.9,2-3.3,1.9c-2,0-3.7-1.1-3.7-3.4
	c0-2.4,1.9-3.3,7-4.4V8.4c0-1.7-0.7-2-1.2-2c-2.2,0,0,3.9-3.3,3.9c-1.4,0-2-0.7-2-1.6c0-1.9,2.7-3.4,6.5-3.4c1.7,0,4.7,0.1,4.7,3.1
	v5.7c-0.1,1,0.6,1.8,1.6,1.9C28.2,16,28.2,16,28.3,16z M21.8,14.3v-3.2c-1.4,0.3-2.4,1.6-2.3,3.1c0,0.8,0.2,1.7,0.9,1.7
	S21.5,15,21.8,14.3z"/>
<path d="M32.7,17.8c-2.7,0-4.1-1.5-4.1-4.5V7h-1.3V5.6c2.8,0,3.8-0.8,4.6-3.3h1.5v3.3h2.4V7h-2.4v6.8c0,1.3,0.1,2.3,1,2.3
	c0.5,0,1-0.3,1.4-0.6v1.3C35,17.5,33.9,17.9,32.7,17.8z"/>
<path d="M52,16.4v1.3c-2.7-0.1-5.4-0.1-8.2,0s-5.3,0-7.9,0v-1.3c0.9-0.1,1.5-0.3,1.5-0.9V5.1c0-1.2-0.5-1.5-1.5-1.2V2.6
	c2-0.3,3.9-0.9,5.6-1.8c0.4,0.2,0.7,0.5,0.9,0.8c-0.1,1.3-0.2,2.7-0.1,4v0.9L41.9,8c1-1.6,2.7-2.6,4.6-2.6c1.8,0,3.8,0.8,3.8,4.4
	v5.7C50.3,16.1,51,16.3,52,16.4z M45.5,9.7c0-1.8-0.7-2.2-1.4-2.2c-1,0-1.7,0.7-1.9,1.7v6.3c0,0.6,0.6,0.8,1.6,0.9s1.7-0.3,1.7-0.9
	V9.7z"/>
<path d="M58.3,17.9c-3.4,0-6.8-2.2-6.8-6.4s3.4-6.2,6.4-6.2c2.8-0.2,5.2,1.9,5.4,4.7c0,1.4-0.5,2.1-1.8,2.1h-5.2
	c0,1.5,0.3,4.3,2.9,4.3c1.1,0.1,2.1-0.5,2.6-1.5h1.2C62.3,16.9,60.4,18,58.3,17.9z M57.8,6.8c-1,0-1.5,1.5-1.5,4.2h2.8
	C59.1,8.3,58.9,6.8,57.8,6.8z"/>
<path d="M75.6,7.5c0.1,0.9-0.6,1.8-1.5,1.8c-0.1,0-0.1,0-0.2,0c-1,0-1.7-0.8-2.6-0.8c-1.2,0-1.5,1.4-1.6,1.9v5
	c0,0.6,0.6,0.8,1.6,0.9v1.3c-2.6,0-5.3,0-8,0v-1.3c0.9-0.1,1.5-0.3,1.5-0.9V9.7c0-1.2-0.7-1.5-1.5-1.2V7.2c1.8-0.4,3.6-1,5.3-1.9
	c0.4,0.2,0.7,0.5,0.8,0.8L69,9h0.2c0.8-2,2.1-3.6,4-3.6c1.2-0.2,2.2,0.7,2.4,1.8C75.6,7.3,75.6,7.4,75.6,7.5z"/>
<path d="M83.1,16.4v1.3c-2.7,0-5.3,0-7.9,0v-1.3c0.9-0.1,1.5-0.3,1.5-0.9V9.7c0-1.2-0.5-1.5-1.5-1.2V7.2c2-0.3,3.9-0.9,5.6-1.9
	c0.4,0.2,0.7,0.5,0.9,0.8c-0.1,1.3-0.2,2.7-0.2,4v5.3C81.5,16.1,82.1,16.3,83.1,16.4z M76.6,2.5C76.6,1.1,77.6,0,79,0c0,0,0,0,0.1,0
	c1.3,0,2.4,1,2.4,2.4c0,0,0,0.1,0,0.1c0,1.3-1,2.4-2.4,2.5c0,0,0,0,0,0C77.7,5,76.6,3.8,76.6,2.5C76.6,2.5,76.6,2.5,76.6,2.5z"/>
<path d="M98.9,16.4v1.3c-2.7-0.1-5.3-0.1-8.1,0h0c-2.7-0.1-5.3-0.1-8,0v-1.3c0.9-0.1,1.6-0.3,1.6-0.9V9.7c0-1.2-0.7-1.5-1.5-1.2V7.2
	c1.8-0.4,3.6-1,5.3-1.9c0.4,0.2,0.7,0.5,0.9,0.8l-0.3,1.7h0.2c0.9-1.6,2.7-2.6,4.5-2.6c1.8,0,3.8,0.8,3.8,4.4v5.7
	C97.2,16.1,97.8,16.3,98.9,16.4z M92.4,9.7c0-1.8-0.6-2.2-1.4-2.2c-0.9,0.1-1.7,0.8-1.9,1.7v6.3c0,0.6,0.7,0.9,1.6,0.9
	s1.7-0.3,1.7-0.9V9.7z"/>
<path d="M105.2,17.9c-3.5,0-6.8-2.2-6.8-6.4s3.4-6.2,6.4-6.2c2.8-0.2,5.2,1.9,5.4,4.7c0,1.4-0.5,2.1-1.8,2.1h-5.2
	c0,1.5,0.3,4.3,2.9,4.3c1.1,0.1,2.1-0.5,2.6-1.5h1.2C109.2,16.9,107.3,18,105.2,17.9z M104.7,6.8c-1,0-1.5,1.5-1.5,4.2h2.8
	C106,8.3,105.8,6.8,104.7,6.8z"/>
<path d="M121.3,15.2c0,0.8,0.4,1.1,1.8,1.2v1.3c-2.9-0.1-5.8-0.1-8.7,0v-1.3c1.4-0.1,1.8-0.4,1.8-1.2V4.5c0-0.8-0.6-0.4-1.5-0.5V2.7
	c2.7,0.1,5.1,0,6.2,0c5.9,0,8.2,1.4,8.2,4.4s-2.5,4.6-7.6,5.2h-0.3L121.3,15.2z M121.4,11c2.2,0,3.3-1.5,3.3-3.7
	c0-1.9-0.8-3.4-2.7-3.4h-0.7L121.4,11L121.4,11z"/>
<path d="M142.6,16v1.3c-1.8,0.1-3.7,0.3-5.4,0.7c-0.4-0.1-0.7-0.4-0.8-0.8l0.1-1.1h-0.3c-0.6,1.3-2,2-3.4,1.9c-2,0-3.7-1.1-3.7-3.4
	c0-2.4,1.9-3.3,7-4.4V8.4c0-1.7-0.7-2-1.1-2c-2.2,0-0.1,3.9-3.3,3.9c-1.4,0-2-0.7-2-1.6c0-1.9,2.7-3.4,6.5-3.4
	c1.7,0,4.7,0.1,4.7,3.1v5.7c-0.1,1,0.6,1.8,1.6,1.9C142.5,16,142.5,16,142.6,16z M136.1,14.4v-3.2c-1.4,0.3-2.4,1.6-2.3,3.1
	c0,0.8,0.2,1.7,0.9,1.7S135.8,15,136.1,14.4L136.1,14.4z"/>
<path d="M154.6,7.5c0.1,0.9-0.6,1.8-1.5,1.8c-0.1,0-0.1,0-0.2,0c-1,0-1.7-0.8-2.6-0.8c-1.2,0-1.5,1.4-1.6,1.9v5
	c0,0.6,0.6,0.8,1.6,0.9v1.3c-2.6,0-5.3,0-8,0v-1.3c0.9-0.1,1.5-0.3,1.5-0.9V9.7c0-1.2-0.6-1.5-1.5-1.2V7.2c1.8-0.4,3.6-1,5.3-1.9
	c0.4,0.2,0.7,0.5,0.8,0.8L148,9h0.2c0.8-2,2.1-3.6,4-3.6c1.2-0.2,2.2,0.7,2.4,1.8C154.6,7.3,154.6,7.4,154.6,7.5z"/>
<path d="M169.2,16.8l-1,1.4c-1.5,0-3.8,0.3-5.6-2l-2.3-2.9v2.3c0,0.6,0.6,0.8,1.6,0.9v1.3c-2.7,0-5.3,0-7.9,0v-1.3
	c0.9-0.1,1.5-0.3,1.5-0.9V5.1c0-1.2-0.5-1.5-1.5-1.2V2.6c2-0.3,3.9-0.9,5.6-1.8c0.4,0.2,0.7,0.5,0.9,0.8c-0.1,1.3-0.2,2.7-0.1,4V11
	c0.9-0.6,1.7-1.5,2.1-2.5c0.4-0.7-0.2-1.2-1.2-1.3V5.6c2.3,0.1,4.5,0.1,7,0v1.5c-0.9,0.2-1.8,0.6-2.4,1.3l-2.6,1.8l3.1,4.4
	C167.2,16,167.9,16.6,169.2,16.8z"/>
<path d="M176.5,16.4v1.3c-2.7,0-5.3,0-7.9,0v-1.3c0.9-0.1,1.5-0.3,1.5-0.9V9.7c0-1.2-0.5-1.5-1.5-1.2V7.2c2-0.3,3.9-0.9,5.6-1.9
	c0.4,0.2,0.7,0.5,0.9,0.8c-0.1,1.3-0.2,2.7-0.1,4v5.3C174.9,16.1,175.5,16.3,176.5,16.4z M170,2.5c0-1.3,1.1-2.4,2.4-2.4
	c0,0,0,0,0.1,0c1.3,0,2.4,1,2.4,2.4c0,0,0,0.1,0,0.1c0,1.3-1,2.4-2.4,2.5c0,0,0,0,0,0C171.1,5,170,3.8,170,2.5
	C170,2.5,170,2.5,170,2.5z"/>
<path d="M192.3,16.4v1.3c-2.7-0.1-5.4-0.1-8.1,0l0,0c-2.7-0.1-5.4-0.1-8,0v-1.3c0.9-0.1,1.6-0.3,1.6-0.9V9.7c0-1.2-0.6-1.5-1.5-1.2
	V7.2c1.9-0.3,3.6-1,5.3-1.9c0.4,0.2,0.7,0.5,0.9,0.8l-0.3,1.7h0.2c0.9-1.6,2.7-2.6,4.5-2.6c1.8,0,3.8,0.8,3.8,4.4v5.7
	C190.6,16.1,191.3,16.3,192.3,16.4z M185.7,9.7c0-1.8-0.6-2.2-1.4-2.2c-0.9,0.1-1.7,0.8-1.9,1.7v6.3c0,0.6,0.6,0.9,1.6,0.9
	s1.6-0.3,1.6-0.9V9.7z"/>
<path d="M197.7,18c-1.9,0-3.1-1-3.4-1c-0.1,0-0.3,0.2-0.3,0.6h-1.4l-0.4-3.6h1c0.7,1.6,2.2,2.6,3.9,2.7c0.8,0,1.3-0.4,1.3-1.1
	c0-0.9-0.8-1.4-1.6-1.7c-1.4-0.5-4.8-1.6-4.8-4.8c0-2.4,2-3.8,4.4-3.8c1.6,0,2.5,0.7,3,0.7s0.6-0.2,0.7-0.5h1.2l0.2,3.7h-1
	c-1.1-2.3-2.5-2.6-3.3-2.6c-1,0-1.4,0.5-1.4,1.2c0,1,1,1.4,1.9,1.8c1.4,0.5,4.7,1.6,4.7,4.5C202.5,16.7,199.9,18,197.7,18z"/>
<path d="M215.6,11.7c0,4.6-3.9,6.2-6.6,6.2s-6.5-1.9-6.5-6.3c0-4.6,3.9-6.2,6.6-6.2S215.6,7.3,215.6,11.7z M210.6,13.4
	c0-3.9-0.9-6.6-2-6.6c-0.9,0-1.1,1.6-1.1,3.1c0,4,0.9,6.7,2,6.7C210.4,16.5,210.6,15,210.6,13.4L210.6,13.4z"/>
<path d="M231.6,16.4v1.3c-2.7-0.1-5.4-0.1-8.1,0h-0.1c-2.7-0.1-5.4-0.1-8,0v-1.3c0.9-0.1,1.6-0.3,1.6-0.9V9.7c0-1.2-0.6-1.5-1.5-1.2
	V7.2c1.8-0.4,3.6-1,5.3-1.9c0.4,0.2,0.7,0.5,0.9,0.8l-0.3,1.7h0.2c0.9-1.6,2.7-2.6,4.5-2.6c1.8,0,3.8,0.8,3.8,4.4v5.7
	C229.9,16.1,230.6,16.3,231.6,16.4z M225.1,9.7c0-1.8-0.6-2.2-1.4-2.2c-0.9,0.1-1.7,0.8-1.9,1.7v6.3c0,0.6,0.6,0.9,1.6,0.9
	s1.7-0.3,1.7-0.9L225.1,9.7z"/>
</svg>
