<svg id="Layer_1" data-name="Layer 1" xmlns="http://www.w3.org/2000/svg" viewBox="0 0 85.4 10"><title>squiggle</title><path class="path01" d="M91.8,45c-3.9,0-5.9,2.3-7.7,4.3S80.9,53,77.9,53s-4.5-1.7-6.2-3.7S68,45,64,45s-5.9,2.3-7.7,4.3S53.1,53,50.1,53s-4.5-1.7-6.2-3.7S40.1,45,36.2,45s-5.9,2.3-7.7,4.3S25.3,53,22.3,53s-4.5-1.7-6.2-3.7S12.3,45,8.4,45a1,1,0,1,0,0,2c3,0,4.5,1.7,6.2,3.7S18.4,55,22.3,55s5.9-2.3,7.7-4.3S33.2,47,36.2,47s4.5,1.7,6.2,3.7S46.2,55,50.1,55s5.9-2.3,7.7-4.3S61,47,64,47s4.5,1.7,6.2,3.7S74,55,77.9,55s5.9-2.3,7.7-4.3S88.8,47,91.8,47a1,1,0,1,0,0-2Z" transform="translate(-7.4 -45)"/></svg>
